# Blender 4.5.3 LTS
# www.blender.org
mtllib nave.mtl
o Cube
v -1.000000 -0.364167 1.000000
v -1.000000 0.375335 1.000000
v -1.000000 -0.364167 -1.000000
v -1.000000 0.375335 -1.000000
v 1.000000 0.355501 1.000000
v 1.000000 0.375335 1.000000
v 1.000000 -2.084458 -1.000000
v 1.155033 2.052526 -1.155033
v 0.000000 0.316839 -1.000000
v 0.000000 0.375335 -1.000000
v 0.000000 0.355501 1.000000
v 0.000000 0.375335 1.000000
v -1.000000 -0.086757 1.805015
v -1.000000 0.099645 1.805015
v 1.000000 0.099645 1.805015
v 1.000000 -0.086757 1.805015
v 0.000000 -0.086757 1.805015
v 0.000000 0.099645 1.805015
v -1.000000 0.375335 -1.915147
v -1.000000 -0.364167 -1.915147
v 0.000000 -0.402828 -1.915147
v 0.000000 0.375335 -1.915147
v 1.155033 2.052526 -1.760114
v 1.000000 -2.804125 -1.915147
v 2.135725 2.052526 -1.155033
v 2.290758 -2.804125 -1.000000
v 2.135725 2.052526 -1.760114
v 2.290758 -2.804125 -1.915147
v 0.000000 0.375335 -4.128019
v 1.000000 0.375335 -4.128019
v 1.000000 -0.402828 -4.128019
v 0.000000 -0.402828 -4.128019
v 1.000000 0.375335 -1.000000
v 1.000000 0.375335 -1.915147
v 2.290758 0.375335 -1.000000
v 2.290758 0.375335 -1.915147
v 1.000000 0.375335 -1.000000
v 1.000000 0.375335 -1.915147
v 2.290758 0.375335 -1.000000
v 2.290758 0.375335 -1.915147
v 1.000000 -0.364167 1.000000
v 1.000000 0.375335 1.000000
v 1.000000 -0.364167 -1.000000
v 1.000000 0.375335 -1.000000
v -1.000000 0.355501 1.000000
v -1.000000 0.375335 1.000000
v -1.000000 -2.084458 -1.000000
v -1.155033 2.052526 -1.155033
v 0.000000 0.316839 -1.000000
v 0.000000 0.375335 -1.000000
v 0.000000 0.355501 1.000000
v 0.000000 0.375335 1.000000
v 1.000000 -0.086757 1.805015
v 1.000000 0.099645 1.805015
v -1.000000 0.099645 1.805015
v -1.000000 -0.086757 1.805015
v 0.000000 -0.086757 1.805015
v 0.000000 0.099645 1.805015
v 1.000000 0.375335 -1.915147
v 1.000000 -0.364167 -1.915147
v 0.000000 -0.402828 -1.915147
v 0.000000 0.375335 -1.915147
v -1.155033 2.052526 -1.760114
v -1.000000 -2.804125 -1.915147
v -2.135725 2.052526 -1.155033
v -2.290758 -2.804125 -1.000000
v -2.135725 2.052526 -1.760114
v -2.290758 -2.804125 -1.915147
v 0.000000 0.375335 -4.128019
v -1.000000 0.375335 -4.128019
v -1.000000 -0.402828 -4.128019
v 0.000000 -0.402828 -4.128019
v -1.000000 0.375335 -1.000000
v -1.000000 0.375335 -1.915147
v -2.290758 0.375335 -1.000000
v -2.290758 0.375335 -1.915147
v -1.000000 0.375335 -1.000000
v -1.000000 0.375335 -1.915147
v -2.290758 0.375335 -1.000000
v -2.290758 0.375335 -1.915147
vn -1.0000 -0.0000 -0.0000
vn -0.0000 1.0000 -0.0000
vn 1.0000 -0.0000 -0.0000
vn -0.0000 -0.9998 0.0193
vn 0.5629 -0.8265 -0.0000
vn -0.0000 0.9461 0.3240
vn -0.0304 -0.7857 0.6179
vn -0.0000 -0.0000 1.0000
vn -0.0000 -0.9454 0.3258
vn -0.0000 -0.8764 -0.4815
vn -0.0000 -0.0000 -1.0000
vn -0.8837 -0.3680 0.2894
vn -0.4014 -0.7199 0.5662
vn -0.8520 -0.3548 -0.3850
vn -0.9958 0.0920 -0.0000
vn 0.9958 0.0920 -0.0000
vn -0.0000 0.0920 0.9958
vn -0.0000 0.0920 -0.9958
vn 0.8358 -0.3481 0.4246
vn -0.5629 -0.8265 -0.0000
vn -0.5335 -0.7413 -0.4073
vn 0.8837 -0.3680 0.2894
vn 0.4014 -0.7199 0.5662
vn 0.8520 -0.3548 -0.3850
vn -0.8358 -0.3481 0.4246
vn 0.5841 -0.8116 0.0157
vn 0.5335 -0.7413 -0.4073
vn -0.0000 -1.0000 -0.0000
vn -0.5841 -0.8116 0.0157
vn 0.0304 -0.7857 0.6179
vt 0.625000 0.000000
vt 0.375000 0.250000
vt 0.375000 0.000000
vt 0.750000 0.500000
vt 0.875000 0.500000
vt 0.625000 0.500000
vt 0.375000 0.750000
vt 0.375000 0.500000
vt 0.625000 0.750000
vt 0.250000 0.500000
vt 0.250000 0.750000
vt 0.750000 0.750000
vt 0.125000 0.750000
vt 0.125000 0.500000
vt 0.875000 0.750000
vt 0.625000 0.875000
vt 0.375000 1.000000
vt 0.375000 0.875000
vt 0.625000 0.375000
vt 0.375000 0.375000
vt 0.625000 0.250000
vt 0.625000 0.500000
vt 0.625000 0.500000
vt 0.625000 1.000000
s 0
f 2/1/1 3/2/1 1/3/1
f 10/4/2 19/5/2 4/5/2
f 33/6/3 5/7/3 7/8/3
f 5/7/3 15/9/3 16/7/3
f 9/10/4 5/7/4 11/11/4
f 4/5/2 12/12/2 10/4/2
f 10/4/2 6/9/2 33/6/2
f 9/10/5 1/13/5 3/14/5
f 2/15/6 18/12/6 12/12/6
f 9/10/7 20/14/7 21/10/7
f 18/16/8 13/17/8 17/18/8
f 15/9/8 17/18/8 16/7/8
f 1/13/9 17/11/9 13/13/9
f 2/1/1 13/3/1 14/1/1
f 5/7/10 17/11/10 11/11/10
f 12/12/6 15/9/6 6/9/6
f 34/6/3 31/8/3 30/6/3
f 20/2/11 22/19/11 21/20/11
f 33/6/2 22/4/2 10/4/2
f 4/21/1 20/2/1 3/2/1
f 7/8/12 21/10/12 24/8/12
f 7/8/8 35/6/8 33/6/8
f 26/8/3 36/6/3 35/6/3
f 34/6/11 28/8/11 24/8/11
f 8/6/2 27/6/2 23/22/2
f 24/8/13 26/8/13 7/8/13
f 29/19/11 31/8/11 32/20/11
f 22/19/1 32/20/1 21/20/1
f 21/10/14 31/8/14 24/8/14
f 34/6/2 29/4/2 22/4/2
f 37/6/2 34/6/2 33/6/2
f 40/6/2 35/6/2 36/6/2
f 39/6/2 33/6/2 35/6/2
f 38/6/2 36/6/2 34/6/2
f 23/22/15 37/6/15 8/6/15
f 25/23/16 40/6/16 27/6/16
f 8/6/17 39/6/17 25/23/17
f 27/6/18 38/6/18 23/22/18
f 43/2/3 42/1/3 41/3/3
f 59/5/2 50/4/2 44/5/2
f 45/7/1 73/6/1 47/8/1
f 45/7/1 55/9/1 46/9/1
f 49/10/19 45/7/19 47/8/19
f 52/12/2 44/5/2 50/4/2
f 46/9/2 50/4/2 73/6/2
f 41/13/20 49/10/20 43/14/20
f 58/12/6 42/15/6 52/12/6
f 49/10/20 60/14/20 43/14/20
f 53/17/8 58/16/8 57/18/8
f 57/18/8 55/9/8 56/7/8
f 41/13/21 57/11/21 51/11/21
f 42/1/3 53/3/3 41/3/3
f 57/11/10 45/7/10 51/11/10
f 55/9/6 52/12/6 46/9/6
f 74/6/1 71/8/1 64/8/1
f 60/2/11 62/19/11 59/21/11
f 62/4/2 73/6/2 50/4/2
f 60/2/3 44/21/3 43/2/3
f 47/8/22 61/10/22 49/10/22
f 75/6/8 47/8/8 73/6/8
f 76/6/1 66/8/1 75/6/1
f 68/8/11 74/6/11 64/8/11
f 67/6/2 48/6/2 63/22/2
f 66/8/23 64/8/23 47/8/23
f 71/8/11 69/19/11 72/20/11
f 72/20/3 62/19/3 61/20/3
f 71/8/24 61/10/24 64/8/24
f 69/4/2 74/6/2 62/4/2
f 77/6/2 74/6/2 78/6/2
f 80/6/2 75/6/2 79/6/2
f 79/6/2 73/6/2 77/6/2
f 78/6/2 76/6/2 80/6/2
f 77/6/16 63/22/16 48/6/16
f 80/6/15 65/23/15 67/6/15
f 79/6/17 48/6/17 65/23/17
f 78/6/18 67/6/18 63/22/18
f 2/1/1 4/21/1 3/2/1
f 10/4/2 22/4/2 19/5/2
f 33/6/3 6/9/3 5/7/3
f 5/7/3 6/9/3 15/9/3
f 9/10/25 7/8/25 5/7/25
f 4/5/2 2/15/2 12/12/2
f 10/4/2 12/12/2 6/9/2
f 9/10/26 11/11/26 1/13/26
f 2/15/6 14/15/6 18/12/6
f 9/10/5 3/14/5 20/14/5
f 18/16/8 14/24/8 13/17/8
f 15/9/8 18/16/8 17/18/8
f 1/13/27 11/11/27 17/11/27
f 2/1/1 1/3/1 13/3/1
f 5/7/10 16/7/10 17/11/10
f 12/12/6 18/12/6 15/9/6
f 34/6/3 24/8/3 31/8/3
f 20/2/11 19/21/11 22/19/11
f 33/6/2 34/6/2 22/4/2
f 4/21/1 19/21/1 20/2/1
f 7/8/12 9/10/12 21/10/12
f 7/8/8 26/8/8 35/6/8
f 26/8/3 28/8/3 36/6/3
f 34/6/11 36/6/11 28/8/11
f 8/6/2 25/23/2 27/6/2
f 24/8/28 28/8/28 26/8/28
f 29/19/11 30/6/11 31/8/11
f 22/19/1 29/19/1 32/20/1
f 21/10/28 32/10/28 31/8/28
f 34/6/2 30/6/2 29/4/2
f 37/6/2 38/6/2 34/6/2
f 40/6/2 39/6/2 35/6/2
f 39/6/2 37/6/2 33/6/2
f 38/6/2 40/6/2 36/6/2
f 23/22/15 38/6/15 37/6/15
f 25/23/16 39/6/16 40/6/16
f 8/6/17 37/6/17 39/6/17
f 27/6/18 40/6/18 38/6/18
f 43/2/3 44/21/3 42/1/3
f 59/5/2 62/4/2 50/4/2
f 45/7/1 46/9/1 73/6/1
f 45/7/1 56/7/1 55/9/1
f 49/10/4 51/11/4 45/7/4
f 52/12/2 42/15/2 44/5/2
f 46/9/2 52/12/2 50/4/2
f 41/13/29 51/11/29 49/10/29
f 58/12/6 54/15/6 42/15/6
f 49/10/30 61/10/30 60/14/30
f 53/17/8 54/24/8 58/16/8
f 57/18/8 58/16/8 55/9/8
f 41/13/9 53/13/9 57/11/9
f 42/1/3 54/1/3 53/3/3
f 57/11/10 56/7/10 45/7/10
f 55/9/6 58/12/6 52/12/6
f 74/6/1 70/6/1 71/8/1
f 60/2/11 61/20/11 62/19/11
f 62/4/2 74/6/2 73/6/2
f 60/2/3 59/21/3 44/21/3
f 47/8/22 64/8/22 61/10/22
f 75/6/8 66/8/8 47/8/8
f 76/6/1 68/8/1 66/8/1
f 68/8/11 76/6/11 74/6/11
f 67/6/2 65/23/2 48/6/2
f 66/8/28 68/8/28 64/8/28
f 71/8/11 70/6/11 69/19/11
f 72/20/3 69/19/3 62/19/3
f 71/8/28 72/10/28 61/10/28
f 69/4/2 70/6/2 74/6/2
f 77/6/2 73/6/2 74/6/2
f 80/6/2 76/6/2 75/6/2
f 79/6/2 75/6/2 73/6/2
f 78/6/2 74/6/2 76/6/2
f 77/6/16 78/6/16 63/22/16
f 80/6/15 79/6/15 65/23/15
f 79/6/17 77/6/17 48/6/17
f 78/6/18 80/6/18 67/6/18
